{
	"asset":{
		"generator":"Khronos glTF Blender I/O v4.4.55",
		"version":"2.0"
	},
	"extensionsUsed":[
		"KHR_lights_punctual"
	],
	"extensionsRequired":[
		"KHR_lights_punctual"
	],
	"extensions":{
		"KHR_lights_punctual":{
			"lights":[
				{
					"color":[
						1,
						1,
						1
					],
					"intensity":54351.41306588226,
					"type":"point",
					"name":"Light.001"
				}
			]
		}
	},
	"scene":0,
	"scenes":[
		{
			"name":"Scene",
			"nodes":[
				0,
				1,
				2,
				3,
				4,
				5,
				6,
				7,
				8,
				9,
				10,
				11,
				12,
				13,
				14,
				15
			]
		}
	],
	"nodes":[
		{
			"camera":0,
			"name":"Camera",
			"rotation":[
				-0.7071068286895752,
				0,
				0,
				0.7071068286895752
			],
			"translation":[
				0,
				10,
				0
			]
		},
		{
			"mesh":0,
			"name":"Cube",
			"rotation":[
				0,
				0.3826834559440613,
				0,
				0.9238795638084412
			],
			"translation":[
				0,
				-0.17483699321746826,
				-0.06193023547530174
			]
		},
		{
			"mesh":1,
			"name":"Cube.001",
			"rotation":[
				0,
				0.22495107352733612,
				0,
				0.9743700623512268
			],
			"scale":[
				0.10000000149011612,
				1,
				0.10000000149011612
			],
			"translation":[
				-0.7055331468582153,
				0,
				-0.632622241973877
			]
		},
		{
			"mesh":2,
			"name":"Cube.009",
			"rotation":[
				0,
				0.646124005317688,
				0,
				0.7632324695587158
			],
			"scale":[
				0.10000000149011612,
				1,
				0.10000000149011612
			],
			"translation":[
				1.1292390823364258,
				0,
				-0.7682539224624634
			]
		},
		{
			"mesh":3,
			"name":"Cube.013",
			"scale":[
				0.7799999713897705,
				1,
				0.10000000149011612
			],
			"translation":[
				0.35870394110679626,
				0.015162999741733074,
				-0.8151077032089233
			]
		},
		{
			"extensions":{
				"KHR_lights_punctual":{
					"light":0
				}
			},
			"name":"Light.001",
			"rotation":[
				-0.28416627645492554,
				0.7269423007965088,
				0.34203392267227173,
				0.5232754945755005
			],
			"translation":[
				4.076245307922363,
				5.903861999511719,
				-1.0054539442062378
			]
		},
		{
			"mesh":4,
			"name":"Cube.002",
			"rotation":[
				0,
				0.3907311260700226,
				0,
				0.9205048680305481
			],
			"scale":[
				0.10000000149011612,
				1,
				0.10000000149011612
			],
			"translation":[
				-0.5242587924003601,
				0,
				-0.7853302359580994
			]
		},
		{
			"mesh":5,
			"name":"Cube.003",
			"rotation":[
				0,
				0.3746066689491272,
				0,
				0.9271839261054993
			],
			"scale":[
				0.12999999523162842,
				1,
				0.10000000149011612
			],
			"translation":[
				-0.5117594003677368,
				0,
				-0.7964648008346558
			]
		},
		{
			"mesh":6,
			"name":"Cube.004",
			"rotation":[
				0,
				0.3907310664653778,
				0,
				0.9205048680305481
			],
			"scale":[
				0.49000000953674316,
				1,
				0.10000000149011612
			],
			"translation":[
				0.6294262409210205,
				0,
				0.647344708442688
			]
		},
		{
			"mesh":7,
			"name":"Cube.005",
			"rotation":[
				0,
				0.6225146651268005,
				0,
				0.782608151435852
			],
			"scale":[
				0.5,
				1,
				0.10000000149011612
			],
			"translation":[
				1.1027754545211792,
				0,
				-0.18031412363052368
			]
		},
		{
			"mesh":8,
			"name":"Cube.006",
			"rotation":[
				0,
				0.15643450617790222,
				0,
				0.987688422203064
			],
			"scale":[
				0.4999999701976776,
				1,
				0.10000000149011612
			],
			"translation":[
				-0.19573703408241272,
				0,
				1.1044504642486572
			]
		},
		{
			"mesh":9,
			"name":"Cube.007",
			"rotation":[
				0,
				0.22495107352733612,
				0,
				0.9743700623512268
			],
			"scale":[
				0.12999999523162842,
				1,
				0.10000000149011612
			],
			"translation":[
				-0.6365570425987244,
				0,
				1.1336896419525146
			]
		},
		{
			"mesh":10,
			"name":"Cube.008",
			"rotation":[
				0,
				-0.1908089965581894,
				0,
				0.9816272854804993
			],
			"scale":[
				0.7900000810623169,
				1,
				0.10000000149011612
			],
			"translation":[
				0.2615368366241455,
				0.008146349340677261,
				-0.42701655626296997
			]
		},
		{
			"mesh":11,
			"name":"Cube.010",
			"rotation":[
				0,
				-0.42261824011802673,
				0,
				0.9063078165054321
			],
			"scale":[
				0.800000011920929,
				1,
				0.10000000149011612
			],
			"translation":[
				-0.036910004913806915,
				0,
				-0.07891049236059189
			]
		},
		{
			"mesh":12,
			"name":"Cube.011",
			"rotation":[
				0,
				-0.7071067094802856,
				0,
				0.7071068286895752
			],
			"scale":[
				0.8499999642372131,
				1,
				0.10000000149011612
			],
			"translation":[
				-0.7668352127075195,
				0,
				0.29618310928344727
			]
		},
		{
			"mesh":13,
			"name":"Cube.012",
			"rotation":[
				0,
				-0.5877852439880371,
				0,
				0.80901700258255
			],
			"scale":[
				0.800000011920929,
				1,
				0.10000000149011612
			],
			"translation":[
				-0.37582746148109436,
				0,
				0.17582345008850098
			]
		}
	],
	"cameras":[
		{
			"name":"Camera",
			"orthographic":{
				"xmag":3.6571428775787354,
				"ymag":3.6571428775787354,
				"zfar":100,
				"znear":0.10000000149011612
			},
			"type":"orthographic"
		}
	],
	"materials":[
		{
			"doubleSided":true,
			"name":"Material.002",
			"pbrMetallicRoughness":{
				"baseColorFactor":[
					0.06429997086524963,
					0.8003076910972595,
					0.1431242972612381,
					1
				],
				"metallicFactor":0,
				"roughnessFactor":0.5
			}
		},
		{
			"doubleSided":true,
			"name":"Material.003",
			"pbrMetallicRoughness":{
				"baseColorFactor":[
					0.16504637897014618,
					0.1606227606534958,
					0.1606227606534958,
					1
				],
				"metallicFactor":0,
				"roughnessFactor":0.5
			}
		},
		{
			"doubleSided":true,
			"name":"Rail",
			"pbrMetallicRoughness":{
				"baseColorFactor":[
					0.16005828976631165,
					0.16005828976631165,
					0.16005828976631165,
					1
				],
				"metallicFactor":0,
				"roughnessFactor":0.5
			}
		},
		{
			"doubleSided":true,
			"name":"Material.005",
			"pbrMetallicRoughness":{
				"baseColorFactor":[
					0.17509879171848297,
					0.05992838367819786,
					0.02932792901992798,
					1
				],
				"metallicFactor":0,
				"roughnessFactor":0.5
			}
		}
	],
	"meshes":[
		{
			"name":"Cube.008",
			"primitives":[
				{
					"attributes":{
						"POSITION":0,
						"NORMAL":1,
						"TEXCOORD_0":2,
						"TANGENT":3
					},
					"indices":4,
					"material":0
				}
			]
		},
		{
			"name":"Cube.011",
			"primitives":[
				{
					"attributes":{
						"POSITION":5,
						"NORMAL":6,
						"TEXCOORD_0":7,
						"TANGENT":8
					},
					"indices":9,
					"material":1
				}
			]
		},
		{
			"name":"Cube.025",
			"primitives":[
				{
					"attributes":{
						"POSITION":10,
						"NORMAL":11,
						"TEXCOORD_0":12,
						"TANGENT":13
					},
					"indices":14,
					"material":2
				}
			]
		},
		{
			"name":"Cube.030",
			"primitives":[
				{
					"attributes":{
						"POSITION":15,
						"NORMAL":16,
						"TEXCOORD_0":17,
						"TANGENT":18
					},
					"indices":19,
					"material":3
				}
			]
		},
		{
			"name":"Cube.004",
			"primitives":[
				{
					"attributes":{
						"POSITION":20,
						"NORMAL":21,
						"TEXCOORD_0":22,
						"TANGENT":23
					},
					"indices":24,
					"material":1
				}
			]
		},
		{
			"name":"Cube.006",
			"primitives":[
				{
					"attributes":{
						"POSITION":25,
						"NORMAL":26,
						"TEXCOORD_0":27,
						"TANGENT":28
					},
					"indices":29,
					"material":1
				}
			]
		},
		{
			"name":"Cube.007",
			"primitives":[
				{
					"attributes":{
						"POSITION":30,
						"NORMAL":31,
						"TEXCOORD_0":32,
						"TANGENT":33
					},
					"indices":34,
					"material":1
				}
			]
		},
		{
			"name":"Cube.009",
			"primitives":[
				{
					"attributes":{
						"POSITION":35,
						"NORMAL":36,
						"TEXCOORD_0":37,
						"TANGENT":38
					},
					"indices":34,
					"material":1
				}
			]
		},
		{
			"name":"Cube.010",
			"primitives":[
				{
					"attributes":{
						"POSITION":39,
						"NORMAL":40,
						"TEXCOORD_0":41,
						"TANGENT":42
					},
					"indices":34,
					"material":1
				}
			]
		},
		{
			"name":"Cube.012",
			"primitives":[
				{
					"attributes":{
						"POSITION":43,
						"NORMAL":44,
						"TEXCOORD_0":45,
						"TANGENT":46
					},
					"indices":9,
					"material":1
				}
			]
		},
		{
			"name":"Cube.013",
			"primitives":[
				{
					"attributes":{
						"POSITION":47,
						"NORMAL":48,
						"TEXCOORD_0":49,
						"TANGENT":50
					},
					"indices":19,
					"material":3
				}
			]
		},
		{
			"name":"Cube.014",
			"primitives":[
				{
					"attributes":{
						"POSITION":51,
						"NORMAL":52,
						"TEXCOORD_0":53,
						"TANGENT":54
					},
					"indices":19,
					"material":3
				}
			]
		},
		{
			"name":"Cube.015",
			"primitives":[
				{
					"attributes":{
						"POSITION":55,
						"NORMAL":56,
						"TEXCOORD_0":57,
						"TANGENT":58
					},
					"indices":19,
					"material":3
				}
			]
		},
		{
			"name":"Cube.017",
			"primitives":[
				{
					"attributes":{
						"POSITION":59,
						"NORMAL":60,
						"TEXCOORD_0":61,
						"TANGENT":62
					},
					"indices":19,
					"material":3
				}
			]
		}
	],
	"accessors":[
		{
			"bufferView":0,
			"componentType":5126,
			"count":124,
			"max":[
				1.6074230670928955,
				1,
				1
			],
			"min":[
				-1.6074230670928955,
				-1,
				-1.0800299644470215
			],
			"type":"VEC3"
		},
		{
			"bufferView":1,
			"componentType":5126,
			"count":124,
			"type":"VEC3"
		},
		{
			"bufferView":2,
			"componentType":5126,
			"count":124,
			"type":"VEC2"
		},
		{
			"bufferView":3,
			"componentType":5126,
			"count":124,
			"type":"VEC4"
		},
		{
			"bufferView":4,
			"componentType":5123,
			"count":204,
			"type":"SCALAR"
		},
		{
			"bufferView":5,
			"componentType":5126,
			"count":104,
			"max":[
				0,
				1,
				1.0000004768371582
			],
			"min":[
				-2.3408751487731934,
				-1,
				-1.3195343017578125
			],
			"type":"VEC3"
		},
		{
			"bufferView":6,
			"componentType":5126,
			"count":104,
			"type":"VEC3"
		},
		{
			"bufferView":7,
			"componentType":5126,
			"count":104,
			"type":"VEC2"
		},
		{
			"bufferView":8,
			"componentType":5126,
			"count":104,
			"type":"VEC4"
		},
		{
			"bufferView":9,
			"componentType":5123,
			"count":156,
			"type":"SCALAR"
		},
		{
			"bufferView":10,
			"componentType":5126,
			"count":96,
			"max":[
				2.1859662532806396,
				1,
				1
			],
			"min":[
				0,
				-1,
				-1.1799649000167847
			],
			"type":"VEC3"
		},
		{
			"bufferView":11,
			"componentType":5126,
			"count":96,
			"type":"VEC3"
		},
		{
			"bufferView":12,
			"componentType":5126,
			"count":96,
			"type":"VEC2"
		},
		{
			"bufferView":13,
			"componentType":5126,
			"count":96,
			"type":"VEC4"
		},
		{
			"bufferView":14,
			"componentType":5123,
			"count":156,
			"type":"SCALAR"
		},
		{
			"bufferView":15,
			"componentType":5126,
			"count":24,
			"max":[
				1,
				1,
				1
			],
			"min":[
				-1,
				-1,
				-1
			],
			"type":"VEC3"
		},
		{
			"bufferView":16,
			"componentType":5126,
			"count":24,
			"type":"VEC3"
		},
		{
			"bufferView":17,
			"componentType":5126,
			"count":24,
			"type":"VEC2"
		},
		{
			"bufferView":18,
			"componentType":5126,
			"count":24,
			"type":"VEC4"
		},
		{
			"bufferView":19,
			"componentType":5123,
			"count":36,
			"type":"SCALAR"
		},
		{
			"bufferView":20,
			"componentType":5126,
			"count":102,
			"max":[
				2.507739305496216,
				1,
				1
			],
			"min":[
				0,
				-1,
				-1.4529532194137573
			],
			"type":"VEC3"
		},
		{
			"bufferView":21,
			"componentType":5126,
			"count":102,
			"type":"VEC3"
		},
		{
			"bufferView":22,
			"componentType":5126,
			"count":102,
			"type":"VEC2"
		},
		{
			"bufferView":23,
			"componentType":5126,
			"count":102,
			"type":"VEC4"
		},
		{
			"bufferView":24,
			"componentType":5123,
			"count":156,
			"type":"SCALAR"
		},
		{
			"bufferView":25,
			"componentType":5126,
			"count":100,
			"max":[
				-4.3272851257825096e-07,
				1,
				1
			],
			"min":[
				-2.17256236076355,
				-1,
				-1.1674134731292725
			],
			"type":"VEC3"
		},
		{
			"bufferView":26,
			"componentType":5126,
			"count":100,
			"type":"VEC3"
		},
		{
			"bufferView":27,
			"componentType":5126,
			"count":100,
			"type":"VEC2"
		},
		{
			"bufferView":28,
			"componentType":5126,
			"count":100,
			"type":"VEC4"
		},
		{
			"bufferView":29,
			"componentType":5123,
			"count":156,
			"type":"SCALAR"
		},
		{
			"bufferView":30,
			"componentType":5126,
			"count":104,
			"max":[
				1.154110312461853,
				1,
				-0.00302987196482718
			],
			"min":[
				-0.8287503719329834,
				-1,
				-2.0832393169403076
			],
			"type":"VEC3"
		},
		{
			"bufferView":31,
			"componentType":5126,
			"count":104,
			"type":"VEC3"
		},
		{
			"bufferView":32,
			"componentType":5126,
			"count":104,
			"type":"VEC2"
		},
		{
			"bufferView":33,
			"componentType":5126,
			"count":104,
			"type":"VEC4"
		},
		{
			"bufferView":34,
			"componentType":5123,
			"count":156,
			"type":"SCALAR"
		},
		{
			"bufferView":35,
			"componentType":5126,
			"count":104,
			"max":[
				1.154110312461853,
				1,
				-0.00302987196482718
			],
			"min":[
				-0.8287503719329834,
				-1,
				-2.0832393169403076
			],
			"type":"VEC3"
		},
		{
			"bufferView":36,
			"componentType":5126,
			"count":104,
			"type":"VEC3"
		},
		{
			"bufferView":37,
			"componentType":5126,
			"count":104,
			"type":"VEC2"
		},
		{
			"bufferView":38,
			"componentType":5126,
			"count":104,
			"type":"VEC4"
		},
		{
			"bufferView":39,
			"componentType":5126,
			"count":104,
			"max":[
				1.154110312461853,
				1,
				-0.00302987196482718
			],
			"min":[
				-0.8287503719329834,
				-1,
				-2.0832393169403076
			],
			"type":"VEC3"
		},
		{
			"bufferView":40,
			"componentType":5126,
			"count":104,
			"type":"VEC3"
		},
		{
			"bufferView":41,
			"componentType":5126,
			"count":104,
			"type":"VEC2"
		},
		{
			"bufferView":42,
			"componentType":5126,
			"count":104,
			"type":"VEC4"
		},
		{
			"bufferView":43,
			"componentType":5126,
			"count":104,
			"max":[
				0,
				1,
				1.0000004768371582
			],
			"min":[
				-2.3408751487731934,
				-1,
				-1.3195343017578125
			],
			"type":"VEC3"
		},
		{
			"bufferView":44,
			"componentType":5126,
			"count":104,
			"type":"VEC3"
		},
		{
			"bufferView":45,
			"componentType":5126,
			"count":104,
			"type":"VEC2"
		},
		{
			"bufferView":46,
			"componentType":5126,
			"count":104,
			"type":"VEC4"
		},
		{
			"bufferView":47,
			"componentType":5126,
			"count":24,
			"max":[
				1,
				1,
				1
			],
			"min":[
				-1,
				-1,
				-1
			],
			"type":"VEC3"
		},
		{
			"bufferView":48,
			"componentType":5126,
			"count":24,
			"type":"VEC3"
		},
		{
			"bufferView":49,
			"componentType":5126,
			"count":24,
			"type":"VEC2"
		},
		{
			"bufferView":50,
			"componentType":5126,
			"count":24,
			"type":"VEC4"
		},
		{
			"bufferView":51,
			"componentType":5126,
			"count":24,
			"max":[
				1,
				1,
				1
			],
			"min":[
				-1,
				-1,
				-1
			],
			"type":"VEC3"
		},
		{
			"bufferView":52,
			"componentType":5126,
			"count":24,
			"type":"VEC3"
		},
		{
			"bufferView":53,
			"componentType":5126,
			"count":24,
			"type":"VEC2"
		},
		{
			"bufferView":54,
			"componentType":5126,
			"count":24,
			"type":"VEC4"
		},
		{
			"bufferView":55,
			"componentType":5126,
			"count":24,
			"max":[
				1,
				1,
				1
			],
			"min":[
				-1,
				-1,
				-1
			],
			"type":"VEC3"
		},
		{
			"bufferView":56,
			"componentType":5126,
			"count":24,
			"type":"VEC3"
		},
		{
			"bufferView":57,
			"componentType":5126,
			"count":24,
			"type":"VEC2"
		},
		{
			"bufferView":58,
			"componentType":5126,
			"count":24,
			"type":"VEC4"
		},
		{
			"bufferView":59,
			"componentType":5126,
			"count":24,
			"max":[
				1,
				1,
				1
			],
			"min":[
				-1,
				-1,
				-1
			],
			"type":"VEC3"
		},
		{
			"bufferView":60,
			"componentType":5126,
			"count":24,
			"type":"VEC3"
		},
		{
			"bufferView":61,
			"componentType":5126,
			"count":24,
			"type":"VEC2"
		},
		{
			"bufferView":62,
			"componentType":5126,
			"count":24,
			"type":"VEC4"
		}
	],
	"bufferViews":[
		{
			"buffer":0,
			"byteLength":1488,
			"byteOffset":0,
			"target":34962
		},
		{
			"buffer":0,
			"byteLength":1488,
			"byteOffset":1488,
			"target":34962
		},
		{
			"buffer":0,
			"byteLength":992,
			"byteOffset":2976,
			"target":34962
		},
		{
			"buffer":0,
			"byteLength":1984,
			"byteOffset":3968,
			"target":34962
		},
		{
			"buffer":0,
			"byteLength":408,
			"byteOffset":5952,
			"target":34963
		},
		{
			"buffer":0,
			"byteLength":1248,
			"byteOffset":6360,
			"target":34962
		},
		{
			"buffer":0,
			"byteLength":1248,
			"byteOffset":7608,
			"target":34962
		},
		{
			"buffer":0,
			"byteLength":832,
			"byteOffset":8856,
			"target":34962
		},
		{
			"buffer":0,
			"byteLength":1664,
			"byteOffset":9688,
			"target":34962
		},
		{
			"buffer":0,
			"byteLength":312,
			"byteOffset":11352,
			"target":34963
		},
		{
			"buffer":0,
			"byteLength":1152,
			"byteOffset":11664,
			"target":34962
		},
		{
			"buffer":0,
			"byteLength":1152,
			"byteOffset":12816,
			"target":34962
		},
		{
			"buffer":0,
			"byteLength":768,
			"byteOffset":13968,
			"target":34962
		},
		{
			"buffer":0,
			"byteLength":1536,
			"byteOffset":14736,
			"target":34962
		},
		{
			"buffer":0,
			"byteLength":312,
			"byteOffset":16272,
			"target":34963
		},
		{
			"buffer":0,
			"byteLength":288,
			"byteOffset":16584,
			"target":34962
		},
		{
			"buffer":0,
			"byteLength":288,
			"byteOffset":16872,
			"target":34962
		},
		{
			"buffer":0,
			"byteLength":192,
			"byteOffset":17160,
			"target":34962
		},
		{
			"buffer":0,
			"byteLength":384,
			"byteOffset":17352,
			"target":34962
		},
		{
			"buffer":0,
			"byteLength":72,
			"byteOffset":17736,
			"target":34963
		},
		{
			"buffer":0,
			"byteLength":1224,
			"byteOffset":17808,
			"target":34962
		},
		{
			"buffer":0,
			"byteLength":1224,
			"byteOffset":19032,
			"target":34962
		},
		{
			"buffer":0,
			"byteLength":816,
			"byteOffset":20256,
			"target":34962
		},
		{
			"buffer":0,
			"byteLength":1632,
			"byteOffset":21072,
			"target":34962
		},
		{
			"buffer":0,
			"byteLength":312,
			"byteOffset":22704,
			"target":34963
		},
		{
			"buffer":0,
			"byteLength":1200,
			"byteOffset":23016,
			"target":34962
		},
		{
			"buffer":0,
			"byteLength":1200,
			"byteOffset":24216,
			"target":34962
		},
		{
			"buffer":0,
			"byteLength":800,
			"byteOffset":25416,
			"target":34962
		},
		{
			"buffer":0,
			"byteLength":1600,
			"byteOffset":26216,
			"target":34962
		},
		{
			"buffer":0,
			"byteLength":312,
			"byteOffset":27816,
			"target":34963
		},
		{
			"buffer":0,
			"byteLength":1248,
			"byteOffset":28128,
			"target":34962
		},
		{
			"buffer":0,
			"byteLength":1248,
			"byteOffset":29376,
			"target":34962
		},
		{
			"buffer":0,
			"byteLength":832,
			"byteOffset":30624,
			"target":34962
		},
		{
			"buffer":0,
			"byteLength":1664,
			"byteOffset":31456,
			"target":34962
		},
		{
			"buffer":0,
			"byteLength":312,
			"byteOffset":33120,
			"target":34963
		},
		{
			"buffer":0,
			"byteLength":1248,
			"byteOffset":33432,
			"target":34962
		},
		{
			"buffer":0,
			"byteLength":1248,
			"byteOffset":34680,
			"target":34962
		},
		{
			"buffer":0,
			"byteLength":832,
			"byteOffset":35928,
			"target":34962
		},
		{
			"buffer":0,
			"byteLength":1664,
			"byteOffset":36760,
			"target":34962
		},
		{
			"buffer":0,
			"byteLength":1248,
			"byteOffset":38424,
			"target":34962
		},
		{
			"buffer":0,
			"byteLength":1248,
			"byteOffset":39672,
			"target":34962
		},
		{
			"buffer":0,
			"byteLength":832,
			"byteOffset":40920,
			"target":34962
		},
		{
			"buffer":0,
			"byteLength":1664,
			"byteOffset":41752,
			"target":34962
		},
		{
			"buffer":0,
			"byteLength":1248,
			"byteOffset":43416,
			"target":34962
		},
		{
			"buffer":0,
			"byteLength":1248,
			"byteOffset":44664,
			"target":34962
		},
		{
			"buffer":0,
			"byteLength":832,
			"byteOffset":45912,
			"target":34962
		},
		{
			"buffer":0,
			"byteLength":1664,
			"byteOffset":46744,
			"target":34962
		},
		{
			"buffer":0,
			"byteLength":288,
			"byteOffset":48408,
			"target":34962
		},
		{
			"buffer":0,
			"byteLength":288,
			"byteOffset":48696,
			"target":34962
		},
		{
			"buffer":0,
			"byteLength":192,
			"byteOffset":48984,
			"target":34962
		},
		{
			"buffer":0,
			"byteLength":384,
			"byteOffset":49176,
			"target":34962
		},
		{
			"buffer":0,
			"byteLength":288,
			"byteOffset":49560,
			"target":34962
		},
		{
			"buffer":0,
			"byteLength":288,
			"byteOffset":49848,
			"target":34962
		},
		{
			"buffer":0,
			"byteLength":192,
			"byteOffset":50136,
			"target":34962
		},
		{
			"buffer":0,
			"byteLength":384,
			"byteOffset":50328,
			"target":34962
		},
		{
			"buffer":0,
			"byteLength":288,
			"byteOffset":50712,
			"target":34962
		},
		{
			"buffer":0,
			"byteLength":288,
			"byteOffset":51000,
			"target":34962
		},
		{
			"buffer":0,
			"byteLength":192,
			"byteOffset":51288,
			"target":34962
		},
		{
			"buffer":0,
			"byteLength":384,
			"byteOffset":51480,
			"target":34962
		},
		{
			"buffer":0,
			"byteLength":288,
			"byteOffset":51864,
			"target":34962
		},
		{
			"buffer":0,
			"byteLength":288,
			"byteOffset":52152,
			"target":34962
		},
		{
			"buffer":0,
			"byteLength":192,
			"byteOffset":52440,
			"target":34962
		},
		{
			"buffer":0,
			"byteLength":384,
			"byteOffset":52632,
			"target":34962
		}
	],
	"buffers":[
		{
			"byteLength":53016,
			"uri":"corner-c8a827f6f331800a0096e65f09834dd2.bin"
		}
	]
}
